<?xml version="1.0" encoding="UTF-8" standalone="no"?>
<!-- Created with Inkscape (http://www.inkscape.org/) -->

<svg
   xmlns:dc="http://purl.org/dc/elements/1.1/"
   xmlns:cc="http://creativecommons.org/ns#"
   xmlns:rdf="http://www.w3.org/1999/02/22-rdf-syntax-ns#"
   xmlns:svg="http://www.w3.org/2000/svg"
   xmlns="http://www.w3.org/2000/svg"
   xmlns:sodipodi="http://sodipodi.sourceforge.net/DTD/sodipodi-0.dtd"
   xmlns:inkscape="http://www.inkscape.org/namespaces/inkscape"
   width="210mm"
   height="297mm"
   viewBox="0 0 210 297"
   version="1.1"
   id="svg8"
   inkscape:version="0.92.1 r15371"
   sodipodi:docname="kresba.svg">
  <defs
     id="defs2" />
  <sodipodi:namedview
     id="base"
     pagecolor="#ffffff"
     bordercolor="#666666"
     borderopacity="1.0"
     inkscape:pageopacity="0.0"
     inkscape:pageshadow="2"
     inkscape:zoom="0.67972082"
     inkscape:cx="396.85039"
     inkscape:cy="561.25984"
     inkscape:document-units="mm"
     inkscape:current-layer="layer1"
     showgrid="false"
     inkscape:window-width="1920"
     inkscape:window-height="986"
     inkscape:window-x="-11"
     inkscape:window-y="-11"
     inkscape:window-maximized="1" />
  <metadata
     id="metadata5">
    <rdf:RDF>
      <cc:Work
         rdf:about="">
        <dc:format>image/svg+xml</dc:format>
        <dc:type
           rdf:resource="http://purl.org/dc/dcmitype/StillImage" />
        <dc:title></dc:title>
      </cc:Work>
    </rdf:RDF>
  </metadata>
  <g
     inkscape:label="Vrstva 1"
     inkscape:groupmode="layer"
     id="layer1">
    <g
       id="g4521"
       transform="rotate(90,66.094707,229.91787)"
       inkscape:export-xdpi="95"
       inkscape:export-ydpi="95">
      <path
         inkscape:export-ydpi="95"
         inkscape:export-xdpi="95"
         sodipodi:nodetypes="zccccccczz"
         inkscape:connector-curvature="0"
         id="path4512"
         d="m 61.006415,232.76423 c -3.803537,2.98747 -5.166188,18.51217 -5.166188,18.51217 l 5.381445,-7.31876 1.614433,17.32825 4.305157,-13.0231 3.659384,7.53403 -1.614435,-14.96042 c 2.583094,3.01361 5.166187,6.02722 7.749281,9.04083 0,0 -2.24368,-14.77517 -6.134846,-17.43588 -3.891169,-2.66072 -5.990696,-2.66459 -9.794231,0.32288 z"
         style="fill:#ffe300;fill-opacity:1;stroke:none;stroke-width:0.07315761px;stroke-linecap:butt;stroke-linejoin:miter;stroke-opacity:1" />
      <path
         inkscape:export-ydpi="95"
         inkscape:export-xdpi="95"
         sodipodi:nodetypes="zcccccccz"
         inkscape:connector-curvature="0"
         id="path4510"
         d="m 64.490776,230.42108 c -4.17172,0.69552 -7.083011,9.35956 -4.524689,10.92755 1.619235,-4.92025 4.012459,-4.69543 4.012459,-4.69543 l 2.048919,10.50069 0.768342,-10.84218 2.390404,4.52469 0.08537,-3.67097 4.183206,3.41486 c 0,0 -4.792293,-10.85474 -8.964013,-10.15921 z"
         style="fill:#ff7100;fill-opacity:1;stroke:none;stroke-width:0.0580288px;stroke-linecap:butt;stroke-linejoin:miter;stroke-opacity:1" />
      <path
         inkscape:export-ydpi="95"
         inkscape:export-xdpi="95"
         sodipodi:nodetypes="sccccsccs"
         inkscape:connector-curvature="0"
         id="path4487"
         d="m 58.325307,211.53002 c -0.454143,5.93572 -0.359497,18.624 -0.359497,18.624 0.343252,2.01523 1.360378,2.58646 2.59516,2.69127 l 10.909285,0.0961 c 1.779893,-0.0608 3.005617,-0.76113 3.123805,-2.73933 0,0 0.271004,-12.7008 -0.04806,-18.83895 -0.200615,-3.85948 -4.757794,-11.14807 -4.757794,-11.14807 -0.690767,-1.45412 -4.183035,-3.10254 -6.557915,0.52714 0,0 -4.601495,6.82115 -4.904985,10.78782 z"
         style="fill:#fdfcf9;fill-opacity:1;stroke:#000000;stroke-width:0.38142833;stroke-linecap:butt;stroke-linejoin:miter;stroke-miterlimit:4;stroke-dasharray:none;stroke-opacity:1" />
      <path
         inkscape:export-ydpi="95"
         inkscape:export-xdpi="95"
         sodipodi:nodetypes="cccc"
         inkscape:connector-curvature="0"
         id="path4489"
         d="m 58.993967,222.56005 -0.166484,18.01835 -3.884635,0.0721 c 0.337176,-4.17221 -1.15842,-11.21409 4.051119,-18.09042 z"
         style="fill:#ff0000;fill-opacity:1;stroke:#000000;stroke-width:0.31925985;stroke-linecap:butt;stroke-linejoin:round;stroke-miterlimit:4;stroke-dasharray:none;stroke-opacity:1" />
      <path
         inkscape:export-ydpi="95"
         inkscape:export-xdpi="95"
         sodipodi:nodetypes="cccc"
         inkscape:connector-curvature="0"
         id="path4489-9"
         d="m 73.292281,222.55814 0.162508,18.02215 3.791778,0.0721 c -0.329117,-4.1731 1.130732,-11.21645 -3.954286,-18.09424 z"
         style="fill:#ff0000;fill-opacity:1;stroke:#000000;stroke-width:0.31545424;stroke-linecap:butt;stroke-linejoin:round;stroke-miterlimit:4;stroke-dasharray:none;stroke-opacity:1" />
      <path
         inkscape:export-ydpi="95"
         inkscape:export-xdpi="95"
         sodipodi:nodetypes="cccc"
         inkscape:connector-curvature="0"
         id="path4506"
         d="m 66.405843,222.54836 1.020819,17.94128 -2.192929,-0.0331 z"
         style="fill:#ff0000;fill-opacity:1;stroke:#000000;stroke-width:0.36295724;stroke-linecap:butt;stroke-linejoin:miter;stroke-miterlimit:4;stroke-dasharray:none;stroke-opacity:1" />
      <ellipse
         inkscape:export-ydpi="95"
         inkscape:export-xdpi="95"
         ry="4.2780099"
         rx="4.3499093"
         cy="208.41907"
         cx="66.760948"
         id="path4508"
         style="fill:#92fcff;fill-opacity:1;stroke:#000000;stroke-width:0.36295721;stroke-linejoin:round;stroke-miterlimit:4;stroke-dasharray:none;stroke-dashoffset:0;stroke-opacity:1" />
    </g>
  </g>
</svg>
